# xmcd
#
# Track frame offsets:
#	150
#	16455
#	32874
#	45648
#	56943
#	75376
#	90310
#	107747
#	122153
#	136001
#	152065
#	167876
#
# Disc length: 2424 seconds
#
# Revision: 2
# Processed by: cddbd v1.5.2PL0 Copyright (c) Steve Scherf et al.
# Submitted via: audiograbber 1.83.01
#
DISCID=9309760c
DTITLE=Mark Chesnutt - Rollin' With The Flow
DYEAR=2008
DGENRE=Country
TTITLE0=Things To Do In Wichita
TTITLE1=When You Love Her Like Crazy
TTITLE2=Rollin' With The Flow
TTITLE3=Going On Later On
TTITLE4=Live To Be 100
TTITLE5=When I Get This Close To You
TTITLE6=(Come On In) The Whiskey's Fine
TTITLE7=If The Devil Brought You Roses
TTITLE8=Woman
TTITLE9=Man In The Mirror
TTITLE10=Long Way To Go
TTITLE11=She Never Got Me Over You
EXTD=
EXTT0=
EXTT1=
EXTT2=
EXTT3=
EXTT4=
EXTT5=
EXTT6=
EXTT7=
EXTT8=
EXTT9=
EXTT10=
EXTT11=
PLAYORDER=
